<svg xmlns="http://www.w3.org/2000/svg" viewBox="0 0 40 16.62">
  <defs>
    <style>
      .a {
        fill: #202028;
      }
    </style>
  </defs>
  <title>single-stat</title>
  <g>
    <path class="a" d="M7.09,16.5H3.86V4.05L0,5.24V2.62L6.74.2h.35Z"/>
    <path class="a" d="M12.67,14.91a1.65,1.65,0,0,1,.52-1.25,2,2,0,0,1,2.62,0,1.65,1.65,0,0,1,.52,1.25,1.56,1.56,0,0,1-.52,1.23,2,2,0,0,1-2.62,0A1.59,1.59,0,0,1,12.67,14.91Z"/>
    <path class="a" d="M30.18,16.5H19V14.28l5.27-5.61a13.73,13.73,0,0,0,1.6-2.06,3.3,3.3,0,0,0,.52-1.68,2.49,2.49,0,0,0-.55-1.71A2,2,0,0,0,24.3,2.6a2.15,2.15,0,0,0-1.73.76,3,3,0,0,0-.63,2H18.7a5.25,5.25,0,0,1,.71-2.71,5,5,0,0,1,2-1.93A6.08,6.08,0,0,1,24.35,0a5.76,5.76,0,0,1,3.91,1.21,4.26,4.26,0,0,1,1.39,3.41A5.41,5.41,0,0,1,29,7.07,13.34,13.34,0,0,1,26.88,10l-3.7,3.9h7Z"/>
    <path class="a" d="M40,16.5H36.77V4.05L32.91,5.24V2.62L39.65.2H40Z"/>
  </g>
</svg>
